<svg width="12" height="11" viewBox="0 0 12 11" fill="none" xmlns="http://www.w3.org/2000/svg">
<g clip-path="url(#clip0_11_20210)">
<path d="M6.45076 5.32514C6.46769 5.32515 6.48425 5.32017 6.49835 5.31081C6.51246 5.30144 6.52349 5.28812 6.53005 5.27252C6.53662 5.25691 6.53842 5.23972 6.53525 5.22309C6.53207 5.20646 6.52406 5.19114 6.51221 5.17905L4.82783 3.46631C4.81586 3.45416 4.80055 3.44584 4.78383 3.44242C4.76712 3.439 4.74977 3.44063 4.73399 3.4471C4.7182 3.45358 4.7047 3.4646 4.69521 3.47877C4.68571 3.49295 4.68065 3.50962 4.68066 3.52668V5.06733C4.68066 5.1357 4.70783 5.20128 4.75618 5.24963C4.80452 5.29798 4.8701 5.32514 4.93848 5.32514H6.45076Z" fill="#2D3748"/>
<path d="M4.27246 5.73349C4.18422 5.64643 4.1141 5.54275 4.06616 5.42843C4.01822 5.31412 3.99341 5.19143 3.99316 5.06747V3.09091H2.44629C2.08195 3.09199 1.73284 3.2372 1.47521 3.49483C1.21758 3.75246 1.07237 4.10157 1.07129 4.46591V9.27841C1.07129 9.64308 1.21615 9.99282 1.47402 10.2507C1.73188 10.5085 2.08162 10.6534 2.44629 10.6534H5.54004C5.90471 10.6534 6.25445 10.5085 6.51231 10.2507C6.77017 9.99282 6.91504 9.64308 6.91504 9.27841V6.01279H4.93848C4.8145 6.01261 4.6918 5.98783 4.57748 5.93989C4.46315 5.89195 4.35948 5.82179 4.27246 5.73349Z" fill="#2D3748"/>
<path d="M8.03223 2.57496H9.54451C9.56144 2.57497 9.578 2.56998 9.5921 2.56062C9.60621 2.55126 9.61724 2.53794 9.6238 2.52234C9.63036 2.50673 9.63217 2.48953 9.629 2.4729C9.62582 2.45627 9.61781 2.44095 9.60596 2.42886L7.92158 0.716128C7.90961 0.703974 7.8943 0.695657 7.87758 0.692236C7.86087 0.688816 7.84352 0.690446 7.82774 0.696921C7.81195 0.703395 7.79845 0.71442 7.78896 0.728592C7.77946 0.742763 7.7744 0.75944 7.77441 0.776499V2.31714C7.77441 2.38552 7.80158 2.45109 7.84993 2.49944C7.89827 2.54779 7.96385 2.57496 8.03223 2.57496Z" fill="#2D3748"/>
<path d="M8.03223 3.26257C7.7821 3.26066 7.54277 3.16045 7.3659 2.98359C7.18903 2.80672 7.08882 2.56738 7.08691 2.31726V0.340698H4.7666C4.42484 0.341096 4.0972 0.477036 3.85554 0.718695C3.61388 0.960355 3.47794 1.288 3.47754 1.62976V2.4032H4.38246C4.49796 2.40366 4.61224 2.42694 4.71872 2.4717C4.8252 2.51646 4.92179 2.58182 5.00293 2.66402L7.34816 5.04878C7.51178 5.21479 7.60313 5.43875 7.60232 5.67183V8.5907H8.74207C9.44053 8.5907 10.0086 8.01234 10.0086 7.30163V3.26257H8.03223Z" fill="black"/>
</g>
<defs>
<clipPath id="clip0_11_20210">
<rect width="11" height="11" fill="white" transform="translate(0.0400391 -0.00283813)"/>
</clipPath>
</defs>
</svg>
