<svg width="9" height="10" viewBox="0 0 9 10" fill="none" xmlns="http://www.w3.org/2000/svg">
<path d="M4.58333 0C2.05792 0 0 2.05792 0 4.58333C0 7.10875 2.05792 9.16667 4.58333 9.16667C7.10875 9.16667 9.16667 7.10875 9.16667 4.58333C9.16667 2.05792 7.10875 0 4.58333 0ZM4.58333 8.25C2.56208 8.25 0.916667 6.60458 0.916667 4.58333C0.916667 2.56208 2.56208 0.916667 4.58333 0.916667C6.60458 0.916667 8.25 2.56208 8.25 4.58333C8.25 6.60458 6.60458 8.25 4.58333 8.25ZM5.95833 4.58333C5.95833 5.34417 5.34417 5.95833 4.58333 5.95833C3.8225 5.95833 3.20833 5.34417 3.20833 4.58333C3.20833 3.8225 3.8225 3.20833 4.58333 3.20833C5.34417 3.20833 5.95833 3.8225 5.95833 4.58333Z" fill="#D32F2F"/>
</svg>
