<svg width="20" height="20" viewBox="0 0 20 20" fill="none" xmlns="http://www.w3.org/2000/svg">
<g id="Adobe_XD_CC_icon 1" clip-path="url(#clip0_7_768)">
<g id="Layer 2 1">
<g id="Surfaces">
<g id="UI UX Surface">
<g id="Outline no shadow">
<path id="Vector" d="M3.54179 0.500015H16.4585C18.4168 0.500015 20.0001 2.08335 20.0001 4.04168V16.4583C20.0001 18.4167 18.4168 20 16.4585 20H3.54179C1.58346 20 0.00012207 18.4167 0.00012207 16.4583V4.04168C0.00012207 2.08335 1.58346 0.500015 3.54179 0.500015Z" fill="#470137"/>
</g>
</g>
</g>
<g id="Outlined Mnemonics Logos">
<g id="Xd">
<path id="Vector_2" d="M10.5167 5.62422L8.01666 9.74922L10.6833 14.1242C10.7 14.1576 10.7083 14.1909 10.7 14.2242C10.6917 14.2576 10.6583 14.2326 10.6083 14.2409H8.69999C8.56666 14.2409 8.47499 14.2326 8.41666 14.1492C8.24166 13.7992 8.05833 13.4576 7.88333 13.1076C7.70833 12.7659 7.51666 12.4159 7.31666 12.0576C7.11666 11.6992 6.91666 11.3409 6.71666 10.9742H6.69999C6.52499 11.3326 6.33333 11.6909 6.14166 12.0492C5.94999 12.4076 5.75833 12.7659 5.57499 13.1159C5.38333 13.4659 5.19166 13.8242 4.99999 14.1659C4.96666 14.2492 4.89999 14.2576 4.80833 14.2576H2.97499C2.94166 14.2576 2.91666 14.2742 2.91666 14.2326C2.90833 14.1992 2.91666 14.1659 2.93333 14.1409L5.52499 9.89089L2.99999 5.61589C2.97499 5.58256 2.96666 5.54922 2.98333 5.53256C2.99999 5.50756 3.03333 5.49922 3.06666 5.49922H4.95833C4.99999 5.49922 5.04166 5.50756 5.07499 5.51589C5.10833 5.53256 5.13333 5.55756 5.15833 5.59089C5.31666 5.94922 5.49999 6.30756 5.69166 6.66589C5.89166 7.02422 6.08333 7.37422 6.29166 7.72422C6.49166 8.07422 6.67499 8.42422 6.84999 8.78256H6.86666C7.04166 8.41589 7.22499 8.05756 7.40833 7.70756C7.59166 7.35756 7.78333 7.00756 7.97499 6.65756C8.16666 6.30756 8.34999 5.94922 8.53333 5.60756C8.54166 5.57422 8.55833 5.54089 8.58333 5.52422C8.61666 5.50756 8.64999 5.49922 8.69166 5.50756H10.45C10.4917 5.49922 10.5333 5.52422 10.5417 5.56589C10.55 5.57422 10.5333 5.60756 10.5167 5.62422Z" fill="#FF61F6"/>
<path id="Vector_3" d="M14.3666 14.4166C13.7499 14.425 13.1332 14.3 12.5749 14.0416C12.0499 13.8 11.6166 13.4 11.3166 12.9083C11.0082 12.4 10.8582 11.7666 10.8582 11.0083C10.8499 10.3916 11.0082 9.7833 11.3166 9.24996C11.6332 8.70829 12.0916 8.2583 12.6416 7.95829C13.2249 7.6333 13.9249 7.47496 14.7499 7.47496C14.7916 7.47496 14.8499 7.47496 14.9249 7.4833C14.9999 7.49163 15.0832 7.49163 15.1832 7.49996V4.86663C15.1832 4.8083 15.2082 4.77496 15.2666 4.77496H16.9582C16.9999 4.76663 17.0332 4.79996 17.0416 4.83329C17.0416 4.84163 17.0416 4.84996 17.0416 4.84996V12.7833C17.0416 12.9333 17.0499 13.1 17.0582 13.2833C17.0749 13.4583 17.0832 13.625 17.0916 13.7666C17.0916 13.825 17.0666 13.875 17.0082 13.9C16.5749 14.0833 16.1166 14.2166 15.6499 14.3C15.2249 14.375 14.7999 14.4166 14.3666 14.4166ZM15.1832 12.75V9.08329C15.1082 9.06663 15.0332 9.04996 14.9582 9.04163C14.8666 9.0333 14.7749 9.02496 14.6832 9.02496C14.3582 9.02496 14.0332 9.09163 13.7416 9.24163C13.4582 9.3833 13.2166 9.59163 13.0332 9.8583C12.8499 10.125 12.7582 10.4833 12.7582 10.9166C12.7499 11.2083 12.7999 11.5 12.8999 11.775C12.9832 12 13.1082 12.2 13.2749 12.3666C13.4332 12.5166 13.6249 12.6333 13.8416 12.7C14.0666 12.775 14.2999 12.8083 14.5332 12.8083C14.6582 12.8083 14.7749 12.8 14.8832 12.7916C14.9916 12.8 15.0832 12.7833 15.1832 12.75Z" fill="#FF61F6"/>
</g>
</g>
</g>
</g>
<defs>
<clipPath id="clip0_7_768">
<rect width="20" height="19.5" fill="white" transform="translate(0.00012207 0.500015)"/>
</clipPath>
</defs>
</svg>
