<svg width="20" height="20" viewBox="0 0 20 20" fill="none" xmlns="http://www.w3.org/2000/svg">
<g id="Icon">
<g id="Group 3">
<path id="Vector" d="M5.92688 9.23894C5.83511 9.11913 5.69961 9.04055 5.55004 9.0204C5.40047 9.00025 5.249 9.04017 5.1288 9.13143C5.05808 9.1872 5.00103 9.25839 4.96201 9.33957L0.0618777 19.1426C-0.00752496 19.2815 -0.0189246 19.4423 0.0301845 19.5896C0.0792935 19.737 0.184892 19.8588 0.32377 19.9283C0.404946 19.9693 0.494692 19.9906 0.585661 19.9903H7.41277C7.52212 19.9931 7.62991 19.9639 7.72294 19.9064C7.81597 19.8489 7.89021 19.7655 7.93655 19.6664C9.41004 16.6229 8.51685 11.9957 5.92688 9.23894Z" fill="url(#paint0_linear_7_715)"/>
<path id="Vector_2" d="M9.52847 0.318066C8.30692 2.19783 7.59501 4.36286 7.46259 6.60075C7.33016 8.83864 7.78178 11.0725 8.77312 13.0832L12.0647 19.6664C12.1133 19.7637 12.1881 19.8455 12.2806 19.9027C12.3731 19.9599 12.4797 19.9902 12.5885 19.9903H19.4142C19.4912 19.9905 19.5674 19.9754 19.6386 19.9461C19.7098 19.9167 19.7744 19.8735 19.8288 19.8191C19.8833 19.7647 19.9264 19.7 19.9558 19.6289C19.9852 19.5577 20.0002 19.4815 20 19.4045C20.0001 19.3137 19.9793 19.2241 19.9394 19.1426L10.525 0.315309C10.4804 0.220968 10.4098 0.14125 10.3216 0.0854272C10.2334 0.0296042 10.1311 -3.05176e-05 10.0268 -3.05176e-05C9.92237 -3.05176e-05 9.82012 0.0296042 9.73191 0.0854272C9.6437 0.14125 9.57315 0.220968 9.52847 0.315309V0.318066Z" fill="#2684FF"/>
</g>
</g>
<defs>
<linearGradient id="paint0_linear_7_715" x1="8.62436" y1="10.7372" x2="3.44993" y2="19.6995" gradientUnits="userSpaceOnUse">
<stop stop-color="#0052CC"/>
<stop offset="0.92" stop-color="#2684FF"/>
</linearGradient>
</defs>
</svg>
