<svg width="20" height="21" viewBox="0 0 20 21" fill="none" xmlns="http://www.w3.org/2000/svg">
<g id="slack-new-logo 1" clip-path="url(#clip0_7_628)">
<g id="Group">
<path id="Vector" fill-rule="evenodd" clip-rule="evenodd" d="M7.33266 1.52588e-05C6.22708 0.000851141 5.33233 0.918649 5.33315 2.0496C5.33233 3.18055 6.2279 4.09834 7.33347 4.09918H9.3338V2.05043C9.33462 0.919485 8.43904 0.00168702 7.33266 1.52588e-05C7.33347 1.52588e-05 7.33347 1.52588e-05 7.33266 1.52588e-05V1.52588e-05ZM7.33266 5.46668H2.00008C0.894512 5.46752 -0.00105903 6.38532 -0.000241908 7.51626C-0.00187616 8.64721 0.893695 9.56501 1.99927 9.56668H7.33266C8.43823 9.56585 9.3338 8.64805 9.33298 7.5171C9.3338 6.38532 8.43823 5.46752 7.33266 5.46668Z" fill="#36C5F0"/>
<path id="Vector_2" fill-rule="evenodd" clip-rule="evenodd" d="M20 7.51626C20.0008 6.38531 19.1052 5.46751 17.9997 5.46667C16.8941 5.46751 15.9985 6.38531 15.9993 7.51626V9.56667H17.9997C19.1052 9.56584 20.0008 8.64804 20 7.51626ZM14.6666 7.51626V2.04959C14.6674 0.919478 13.7727 0.00167939 12.6671 7.62939e-06C11.5615 0.000843511 10.6659 0.918642 10.6668 2.04959V7.51626C10.6651 8.6472 11.5607 9.565 12.6663 9.56667C13.7718 9.56584 14.6674 8.64804 14.6666 7.51626Z" fill="#2EB67D"/>
<path id="Vector_3" fill-rule="evenodd" clip-rule="evenodd" d="M12.6662 20.5C13.7718 20.4992 14.6674 19.5814 14.6665 18.4504C14.6674 17.3195 13.7718 16.4017 12.6662 16.4008H10.6659V18.4504C10.6651 19.5805 11.5606 20.4983 12.6662 20.5ZM12.6662 15.0325H17.9996C19.1052 15.0317 20.0008 14.1139 19.9999 12.9829C20.0016 11.852 19.106 10.9342 18.0004 10.9325H12.667C11.5615 10.9333 10.6659 11.8511 10.6667 12.9821C10.6659 14.1139 11.5606 15.0317 12.6662 15.0325Z" fill="#ECB22E"/>
<path id="Vector_4" fill-rule="evenodd" clip-rule="evenodd" d="M5.58721e-07 12.9829C-0.000816568 14.1138 0.894755 15.0316 2.00033 15.0325C3.1059 15.0316 4.00147 14.1138 4.00065 12.9829V10.9333H2.00033C0.894755 10.9341 -0.000816568 11.8519 5.58721e-07 12.9829ZM5.33339 12.9829V18.4496C5.33175 19.5805 6.22733 20.4983 7.3329 20.5C8.43847 20.4991 9.33404 19.5813 9.33323 18.4504V12.9846C9.33486 11.8536 8.43929 10.9358 7.33371 10.9341C6.22732 10.9341 5.33257 11.8519 5.33339 12.9829C5.33339 12.9837 5.33339 12.9829 5.33339 12.9829Z" fill="#E01E5A"/>
</g>
</g>
<defs>
<clipPath id="clip0_7_628">
<rect width="20" height="20.5" fill="white"/>
</clipPath>
</defs>
</svg>
