<svg width="20" height="21" viewBox="0 0 20 21" fill="none" xmlns="http://www.w3.org/2000/svg">
<g id="spotify-2 1" clip-path="url(#clip0_7_617)">
<path id="Vector" d="M10 0.499985C4.47697 0.499985 0 4.97695 0 10.5C0 16.023 4.47697 20.5 10 20.5C15.523 20.5 20 16.023 20 10.5C20 4.97764 15.523 0.500667 10 0.499985ZM14.5861 14.9224C14.4067 15.2171 14.0225 15.3093 13.7291 15.1298C11.3811 13.6948 8.42511 13.3707 4.94439 14.1656C4.60867 14.2427 4.27431 14.0326 4.19788 13.6968C4.12078 13.3611 4.33026 13.0268 4.66667 12.9503C8.47561 12.0803 11.7434 12.4549 14.3794 14.0653C14.6728 14.2461 14.7663 14.629 14.5861 14.9224ZM15.8096 12.2004C15.5838 12.5675 15.1034 12.6822 14.7369 12.457C12.0498 10.805 7.95155 10.3267 4.77243 11.2915C4.36029 11.4164 3.92494 11.1837 3.79939 10.7722C3.6752 10.3601 3.90788 9.92544 4.31934 9.79988C7.95087 8.69787 12.4661 9.23148 15.5524 11.1284C15.9195 11.3543 16.0355 11.834 15.8096 12.2004ZM15.9147 9.36454C12.6912 7.45051 7.37427 7.27446 4.29683 8.20793C3.8028 8.35805 3.28011 8.07897 3.13067 7.58494C2.98124 7.09091 3.25964 6.56822 3.75435 6.4181C7.28693 5.34611 13.1586 5.55287 16.8693 7.75553C17.3135 8.0196 17.4596 8.59347 17.1962 9.037C16.9335 9.4819 16.3582 9.62861 15.9147 9.36454Z" fill="#2EBD59"/>
</g>
<defs>
<clipPath id="clip0_7_617">
<rect width="20" height="20" fill="white" transform="translate(0 0.499985)"/>
</clipPath>
</defs>
</svg>
